<?xml version="1.0" standalone="no"?>
<!DOCTYPE svg PUBLIC "-//W3C//DTD SVG 1.1//EN" "http://www.w3.org/Graphics/SVG/1.1/DTD/svg11.dtd">
<svg xmlns="http://www.w3.org/2000/svg" width="960" height="540" viewBox="0 0 960 540" version="1.1">
<g id="#f8f8f8ff">
</g>
<g id="#1a1a1aff">
<path fill="#1a1a1a" opacity="1.00" d=" M 258.16 36.24 C 278.76 29.89 300.72 29.98 321.93 32.54 C 339.34 33.13 355.64 40.72 370.09 49.97 C 394.64 66.13 414.93 87.81 433.68 110.24 C 448.17 127.65 461.39 146.06 474.26 164.68 C 510.85 214.11 547.44 263.55 584.03 312.99 C 590.37 321.89 597.17 330.44 604.14 338.86 C 598.44 337.41 591.88 338.49 587.39 342.38 C 569.37 360.69 547.14 375.11 522.49 382.64 C 502.65 388.62 481.62 391.08 460.97 388.81 C 440.41 387.05 420.11 381.57 401.69 372.20 C 386.97 364.68 373.53 354.74 361.82 343.09 C 360.35 341.55 359.12 339.83 357.85 338.14 C 299.38 261.27 240.89 184.41 182.43 107.54 C 177.93 101.77 172.37 96.90 167.96 91.07 C 173.83 93.94 182.37 94.50 186.59 88.61 C 204.14 64.25 229.03 44.51 258.16 36.24 Z"/>
<path fill="#1a1a1a" opacity="1.00" d=" M 639.06 32.19 C 677.23 26.44 718.50 35.52 748.31 60.77 C 759.62 69.83 768.64 81.22 777.60 92.51 C 828.51 155.51 879.42 218.51 930.32 281.51 C 950.47 306.82 961.26 339.57 959.08 371.93 C 957.89 389.95 953.91 407.90 946.18 424.27 C 933.35 451.51 910.72 473.58 884.12 487.39 C 852.62 504.26 814.40 505.93 780.55 495.58 C 763.77 490.41 748.05 481.78 734.78 470.28 C 722.02 459.57 712.34 445.90 701.80 433.14 C 670.42 394.24 638.99 355.37 607.63 316.45 C 572.46 268.51 537.39 220.49 502.27 172.53 C 493.55 160.42 484.14 148.84 475.02 137.04 C 481.06 139.23 487.90 140.83 494.09 138.18 C 496.13 136.92 497.44 134.78 499.14 133.11 C 525.24 104.86 553.44 78.43 584.16 55.25 C 600.30 43.35 619.27 35.42 639.06 32.19 Z"/>
<path fill="#1a1a1a" opacity="1.00" d=" M 159.92 110.77 C 162.74 113.47 164.62 116.96 167.09 119.95 C 213.48 180.50 259.90 241.02 306.30 301.55 C 311.38 307.86 315.77 314.75 321.54 320.47 C 327.60 328.08 333.68 335.68 339.81 343.23 C 340.39 343.92 340.76 344.71 340.94 345.61 C 333.48 345.13 326.74 349.57 322.36 355.30 C 299.33 383.66 276.41 412.10 253.42 440.50 C 248.34 446.71 243.46 453.11 237.92 458.95 C 222.02 476.14 201.69 489.38 179.12 495.90 C 153.19 503.77 124.89 504.23 98.90 496.38 C 69.82 487.38 44.19 468.18 26.36 443.63 C 8.92 419.57 1.42 389.41 2.01 359.96 C 2.44 331.89 12.93 304.34 30.33 282.41 C 69.81 233.53 109.28 184.63 148.78 135.77 C 154.56 128.68 159.69 120.17 159.92 110.77 Z"/>
</g>
</svg>